<svg xmlns="http://www.w3.org/2000/svg" xmlns:xlink="http://www.w3.org/1999/xlink" width="1920" zoomAndPan="magnify" viewBox="0 0 1440 809.999993" height="1080" preserveAspectRatio="xMidYMid meet" version="1.2"><defs/><g id="eb16437e3d"><rect x="0" width="1440" y="0" height="809.999993" style="fill:#ffffff;fill-opacity:1;stroke:none;"/><rect x="0" width="1440" y="0" height="809.999993" style="fill:#087440;fill-opacity:1;stroke:none;"/><g style="fill:#000000;fill-opacity:1;"><g transform="translate(514.467059, 455.524526)"><path style="stroke:none" d="M 1.703125 1.1875 L 1.703125 -14.4375 L 5.765625 -14.4375 C 11.660156 -14.4375 14.609375 -17.378906 14.609375 -23.265625 L 14.609375 -118.859375 L 35.484375 -118.859375 L 35.484375 -24.796875 C 35.484375 -16.867188 33.414062 -10.554688 29.28125 -5.859375 C 25.15625 -1.160156 19.1875 1.1875 11.375 1.1875 Z M 1.703125 1.1875 "/></g></g><g style="fill:#000000;fill-opacity:1;"><g transform="translate(556.573734, 455.524526)"><path style="stroke:none" d="M 35.65625 1.703125 C 25.46875 1.703125 17.65625 -2.144531 12.21875 -9.84375 C 6.789062 -17.539062 4.078125 -30.503906 4.078125 -48.734375 L 4.078125 -70.125 C 4.078125 -88.351562 6.789062 -101.316406 12.21875 -109.015625 C 17.65625 -116.710938 25.46875 -120.5625 35.65625 -120.5625 C 45.726562 -120.5625 53.476562 -116.710938 58.90625 -109.015625 C 64.34375 -101.316406 67.0625 -88.351562 67.0625 -70.125 L 67.0625 -48.734375 C 67.0625 -30.503906 64.34375 -17.539062 58.90625 -9.84375 C 53.476562 -2.144531 45.726562 1.703125 35.65625 1.703125 Z M 24.953125 -39.734375 C 24.953125 -31.359375 25.71875 -24.960938 27.25 -20.546875 C 28.78125 -16.128906 31.523438 -13.921875 35.484375 -13.921875 C 39.554688 -13.921875 42.359375 -16.128906 43.890625 -20.546875 C 45.421875 -24.960938 46.1875 -31.359375 46.1875 -39.734375 L 46.1875 -79.125 C 46.1875 -87.726562 45.421875 -94.179688 43.890625 -98.484375 C 42.359375 -102.785156 39.554688 -104.9375 35.484375 -104.9375 C 31.523438 -104.9375 28.78125 -102.785156 27.25 -98.484375 C 25.71875 -94.179688 24.953125 -87.726562 24.953125 -79.125 Z M 24.953125 -39.734375 "/></g></g><g style="fill:#000000;fill-opacity:1;"><g transform="translate(627.713626, 455.524526)"><path style="stroke:none" d="M 30.390625 1.703125 C 20.992188 1.703125 14.257812 -2.203125 10.1875 -10.015625 C 6.113281 -17.828125 4.078125 -30.734375 4.078125 -48.734375 L 4.078125 -70.125 C 4.078125 -88.007812 6.765625 -100.882812 12.140625 -108.75 C 17.515625 -116.625 25.523438 -120.5625 36.171875 -120.5625 C 46.242188 -120.5625 53.796875 -117.84375 58.828125 -112.40625 C 63.867188 -106.96875 66.390625 -99.210938 66.390625 -89.140625 L 66.390625 -81.671875 L 45.5 -81.671875 L 45.5 -92.375 C 45.5 -96.675781 44.707031 -100.015625 43.125 -102.390625 C 41.539062 -104.765625 39.222656 -105.953125 36.171875 -105.953125 C 31.753906 -105.953125 28.78125 -103.742188 27.25 -99.328125 C 25.71875 -94.910156 24.953125 -88.851562 24.953125 -81.15625 L 24.953125 -37.6875 C 24.953125 -29.769531 25.71875 -23.660156 27.25 -19.359375 C 28.78125 -15.054688 31.753906 -12.90625 36.171875 -12.90625 C 39.222656 -12.90625 41.539062 -14.117188 43.125 -16.546875 C 44.707031 -18.984375 45.5 -22.296875 45.5 -26.484375 L 45.5 -49.578125 L 35.140625 -49.578125 L 35.140625 -65.203125 L 66.390625 -65.203125 L 66.390625 0 L 46.53125 0 L 46.53125 -5.9375 C 42.675781 -0.84375 37.296875 1.703125 30.390625 1.703125 Z M 30.390625 1.703125 "/></g></g><g style="fill:#000000;fill-opacity:1;"><g transform="translate(698.853518, 455.524526)"><path style="stroke:none" d="M 35.65625 1.703125 C 25.46875 1.703125 17.65625 -2.144531 12.21875 -9.84375 C 6.789062 -17.539062 4.078125 -30.503906 4.078125 -48.734375 L 4.078125 -70.125 C 4.078125 -88.351562 6.789062 -101.316406 12.21875 -109.015625 C 17.65625 -116.710938 25.46875 -120.5625 35.65625 -120.5625 C 45.726562 -120.5625 53.476562 -116.710938 58.90625 -109.015625 C 64.34375 -101.316406 67.0625 -88.351562 67.0625 -70.125 L 67.0625 -48.734375 C 67.0625 -30.503906 64.34375 -17.539062 58.90625 -9.84375 C 53.476562 -2.144531 45.726562 1.703125 35.65625 1.703125 Z M 24.953125 -39.734375 C 24.953125 -31.359375 25.71875 -24.960938 27.25 -20.546875 C 28.78125 -16.128906 31.523438 -13.921875 35.484375 -13.921875 C 39.554688 -13.921875 42.359375 -16.128906 43.890625 -20.546875 C 45.421875 -24.960938 46.1875 -31.359375 46.1875 -39.734375 L 46.1875 -79.125 C 46.1875 -87.726562 45.421875 -94.179688 43.890625 -98.484375 C 42.359375 -102.785156 39.554688 -104.9375 35.484375 -104.9375 C 31.523438 -104.9375 28.78125 -102.785156 27.25 -98.484375 C 25.71875 -94.179688 24.953125 -87.726562 24.953125 -79.125 Z M 24.953125 -39.734375 "/></g></g><g style="fill:#000000;fill-opacity:1;"><g transform="translate(769.993411, 455.524526)"><path style="stroke:none" d=""/></g></g><g style="fill:#000000;fill-opacity:1;"><g transform="translate(803.101473, 455.524526)"><path style="stroke:none" d="M 35.65625 1.703125 C 25.46875 1.703125 17.65625 -2.144531 12.21875 -9.84375 C 6.789062 -17.539062 4.078125 -30.5625 4.078125 -48.90625 L 4.078125 -70.125 C 4.078125 -88.351562 6.789062 -101.316406 12.21875 -109.015625 C 17.65625 -116.710938 25.46875 -120.5625 35.65625 -120.5625 C 45.726562 -120.5625 53.476562 -116.710938 58.90625 -109.015625 C 64.34375 -101.316406 67.0625 -88.351562 67.0625 -70.125 L 67.0625 -48.90625 C 67.0625 -30.675781 64.34375 -17.679688 58.90625 -9.921875 C 53.476562 -2.171875 45.726562 1.703125 35.65625 1.703125 Z M 24.953125 -46.1875 C 24.953125 -44.71875 24.953125 -43.300781 24.953125 -41.9375 C 24.953125 -40.582031 25.007812 -39.28125 25.125 -38.03125 L 40.078125 -103.75 C 38.597656 -104.65625 37.066406 -105.109375 35.484375 -105.109375 C 31.640625 -104.992188 28.921875 -102.53125 27.328125 -97.71875 C 25.742188 -92.90625 24.953125 -84.613281 24.953125 -72.84375 Z M 30.5625 -15.796875 C 32.03125 -14.546875 33.671875 -13.921875 35.484375 -13.921875 C 39.453125 -13.921875 42.226562 -16.351562 43.8125 -21.21875 C 45.394531 -26.09375 46.1875 -34.414062 46.1875 -46.1875 L 46.1875 -72.84375 C 46.1875 -74.769531 46.1875 -76.550781 46.1875 -78.1875 C 46.1875 -79.832031 46.128906 -81.390625 46.015625 -82.859375 Z M 30.5625 -15.796875 "/></g></g><g style="fill:#000000;fill-opacity:1;"><g transform="translate(874.241365, 455.524526)"><path style="stroke:none" d="M 17.828125 0 L 17.828125 -98.3125 L 5.4375 -89.484375 L -1.703125 -102.890625 L 21.5625 -118.859375 L 38.890625 -118.859375 L 38.890625 0 Z M 17.828125 0 "/></g></g><g style="fill:#ffffff;fill-opacity:1;"><g transform="translate(633.335119, 521.746938)"><path style="stroke:none" d="M 2.8125 0 L 2.8125 -36.40625 L 16.59375 -36.40625 L 16.59375 -33.859375 L 5.984375 -33.859375 L 5.984375 -19.5 L 13.890625 -19.5 L 13.890625 -16.953125 L 5.984375 -16.953125 L 5.984375 -2.546875 L 16.59375 -2.546875 L 16.59375 0 Z M 2.8125 0 "/></g></g><g style="fill:#ffffff;fill-opacity:1;"><g transform="translate(651.741716, 521.746938)"><path style="stroke:none" d="M 28.125 -19.765625 C 28.125 -21.109375 27.722656 -22.171875 26.921875 -22.953125 C 26.128906 -23.734375 25.078125 -24.125 23.765625 -24.125 C 22.304688 -24.125 21.109375 -23.578125 20.171875 -22.484375 C 19.234375 -21.398438 18.679688 -20.023438 18.515625 -18.359375 L 18.515625 0 L 15.4375 0 L 15.4375 -19.765625 C 15.4375 -21.109375 15.046875 -22.171875 14.265625 -22.953125 C 13.492188 -23.734375 12.445312 -24.125 11.125 -24.125 C 9.632812 -24.125 8.421875 -23.578125 7.484375 -22.484375 C 6.546875 -21.398438 5.992188 -20.023438 5.828125 -18.359375 L 5.828125 0 L 2.8125 0 L 2.8125 -26 L 5.71875 -26 L 5.71875 -22.46875 C 6.3125 -23.71875 7.144531 -24.703125 8.21875 -25.421875 C 9.289062 -26.148438 10.554688 -26.515625 12.015625 -26.515625 C 13.609375 -26.515625 14.953125 -26.132812 16.046875 -25.375 C 17.140625 -24.613281 17.859375 -23.503906 18.203125 -22.046875 C 18.785156 -23.398438 19.628906 -24.484375 20.734375 -25.296875 C 21.847656 -26.109375 23.171875 -26.515625 24.703125 -26.515625 C 26.671875 -26.515625 28.242188 -25.925781 29.421875 -24.75 C 30.609375 -23.570312 31.203125 -21.890625 31.203125 -19.703125 L 31.203125 0 L 28.125 0 Z M 28.125 -19.765625 "/></g></g><g style="fill:#ffffff;fill-opacity:1;"><g transform="translate(685.695133, 521.746938)"><path style="stroke:none" d=""/></g></g><g style="fill:#ffffff;fill-opacity:1;"><g transform="translate(696.614307, 521.746938)"><path style="stroke:none" d="M 2.8125 0 L 2.8125 -36.40625 L 10.40625 -36.40625 C 13.144531 -36.40625 15.132812 -35.613281 16.375 -34.03125 C 17.625 -32.457031 18.25 -30.300781 18.25 -27.5625 C 18.25 -25.507812 17.925781 -23.765625 17.28125 -22.328125 C 16.644531 -20.890625 15.566406 -19.859375 14.046875 -19.234375 C 15.703125 -18.503906 16.898438 -17.316406 17.640625 -15.671875 C 18.390625 -14.023438 18.765625 -12.128906 18.765625 -9.984375 C 18.765625 -7.035156 18.21875 -4.632812 17.125 -2.78125 C 16.039062 -0.925781 14.160156 0 11.484375 0 Z M 5.984375 -2.546875 L 11.078125 -2.546875 C 12.253906 -2.546875 13.160156 -2.890625 13.796875 -3.578125 C 14.441406 -4.273438 14.898438 -5.210938 15.171875 -6.390625 C 15.453125 -7.566406 15.59375 -8.851562 15.59375 -10.25 C 15.59375 -12.570312 15.164062 -14.429688 14.3125 -15.828125 C 13.46875 -17.234375 12.128906 -17.9375 10.296875 -17.9375 L 5.984375 -17.9375 Z M 5.984375 -20.484375 L 9.984375 -20.484375 C 11.859375 -20.484375 13.175781 -21.054688 13.9375 -22.203125 C 14.695312 -23.347656 15.078125 -25.03125 15.078125 -27.25 C 15.078125 -29.1875 14.6875 -30.769531 13.90625 -32 C 13.125 -33.238281 11.851562 -33.859375 10.09375 -33.859375 L 5.984375 -33.859375 Z M 5.984375 -20.484375 "/></g></g><g style="fill:#ffffff;fill-opacity:1;"><g transform="translate(716.684782, 521.746938)"><path style="stroke:none" d="M 2.8125 0 L 2.8125 -26 L 5.71875 -26 L 5.71875 -22.15625 C 6.3125 -23.46875 7.144531 -24.519531 8.21875 -25.3125 C 9.289062 -26.113281 10.535156 -26.515625 11.953125 -26.515625 L 12.171875 -26.515625 L 12.171875 -24.125 L 11.4375 -24.125 C 9.875 -24.125 8.585938 -23.539062 7.578125 -22.375 C 6.578125 -21.21875 5.992188 -19.707031 5.828125 -17.84375 L 5.828125 0 Z M 2.8125 0 "/></g></g><g style="fill:#ffffff;fill-opacity:1;"><g transform="translate(729.007814, 521.746938)"><path style="stroke:none" d="M 10.296875 0.515625 C 7.484375 0.515625 5.347656 -0.53125 3.890625 -2.625 C 2.441406 -4.71875 1.71875 -7.984375 1.71875 -12.421875 L 1.71875 -13.78125 C 1.71875 -18.320312 2.488281 -21.578125 4.03125 -23.546875 C 5.570312 -25.523438 7.59375 -26.515625 10.09375 -26.515625 C 12.789062 -26.515625 14.753906 -25.75 15.984375 -24.21875 C 17.222656 -22.695312 17.84375 -20.757812 17.84375 -18.40625 L 17.84375 -15.96875 C 17.84375 -15.0625 17.53125 -14.304688 16.90625 -13.703125 C 16.28125 -13.097656 15.515625 -12.796875 14.609375 -12.796875 L 4.734375 -12.796875 L 4.734375 -11.640625 C 4.734375 -8.179688 5.203125 -5.695312 6.140625 -4.1875 C 7.078125 -2.675781 8.394531 -1.921875 10.09375 -1.921875 C 11.40625 -1.921875 12.476562 -2.273438 13.3125 -2.984375 C 14.144531 -3.703125 14.628906 -4.71875 14.765625 -6.03125 L 14.765625 -6.765625 L 17.84375 -6.609375 L 17.84375 -5.875 C 17.664062 -3.9375 16.925781 -2.382812 15.625 -1.21875 C 14.320312 -0.0625 12.546875 0.515625 10.296875 0.515625 Z M 4.734375 -15.1875 L 13.421875 -15.1875 C 13.796875 -15.1875 14.113281 -15.320312 14.375 -15.59375 C 14.632812 -15.875 14.765625 -16.1875 14.765625 -16.53125 L 14.765625 -18.40625 C 14.765625 -20.070312 14.390625 -21.441406 13.640625 -22.515625 C 12.898438 -23.585938 11.71875 -24.125 10.09375 -24.125 C 8.5 -24.125 7.222656 -23.429688 6.265625 -22.046875 C 5.316406 -20.660156 4.804688 -18.375 4.734375 -15.1875 Z M 4.734375 -15.1875 "/></g></g><g style="fill:#ffffff;fill-opacity:1;"><g transform="translate(747.986362, 521.746938)"><path style="stroke:none" d="M 6.34375 0 L 0.828125 -26 L 3.953125 -26 L 9.203125 -0.984375 L 14.40625 -26 L 17.53125 -26 L 11.953125 0 Z M 6.34375 0 "/></g></g><g style="fill:#ffffff;fill-opacity:1;"><g transform="translate(765.924987, 521.746938)"><path style="stroke:none" d="M 10.296875 0.515625 C 7.484375 0.515625 5.347656 -0.53125 3.890625 -2.625 C 2.441406 -4.71875 1.71875 -7.984375 1.71875 -12.421875 L 1.71875 -13.78125 C 1.71875 -18.320312 2.488281 -21.578125 4.03125 -23.546875 C 5.570312 -25.523438 7.59375 -26.515625 10.09375 -26.515625 C 12.789062 -26.515625 14.753906 -25.75 15.984375 -24.21875 C 17.222656 -22.695312 17.84375 -20.757812 17.84375 -18.40625 L 17.84375 -15.96875 C 17.84375 -15.0625 17.53125 -14.304688 16.90625 -13.703125 C 16.28125 -13.097656 15.515625 -12.796875 14.609375 -12.796875 L 4.734375 -12.796875 L 4.734375 -11.640625 C 4.734375 -8.179688 5.203125 -5.695312 6.140625 -4.1875 C 7.078125 -2.675781 8.394531 -1.921875 10.09375 -1.921875 C 11.40625 -1.921875 12.476562 -2.273438 13.3125 -2.984375 C 14.144531 -3.703125 14.628906 -4.71875 14.765625 -6.03125 L 14.765625 -6.765625 L 17.84375 -6.609375 L 17.84375 -5.875 C 17.664062 -3.9375 16.925781 -2.382812 15.625 -1.21875 C 14.320312 -0.0625 12.546875 0.515625 10.296875 0.515625 Z M 4.734375 -15.1875 L 13.421875 -15.1875 C 13.796875 -15.1875 14.113281 -15.320312 14.375 -15.59375 C 14.632812 -15.875 14.765625 -16.1875 14.765625 -16.53125 L 14.765625 -18.40625 C 14.765625 -20.070312 14.390625 -21.441406 13.640625 -22.515625 C 12.898438 -23.585938 11.71875 -24.125 10.09375 -24.125 C 8.5 -24.125 7.222656 -23.429688 6.265625 -22.046875 C 5.316406 -20.660156 4.804688 -18.375 4.734375 -15.1875 Z M 4.734375 -15.1875 "/></g></g><g style="fill:#ffffff;fill-opacity:1;"><g transform="translate(785.42351, 521.746938)"><path style="stroke:none" d="M 1.65625 0 L 1.65625 -3.6875 L 5.40625 -3.6875 L 5.40625 0 Z M 1.65625 0 "/></g></g><g style="fill:#ffffff;fill-opacity:1;"><g transform="translate(792.494974, 521.746938)"><path style="stroke:none" d="M 1.65625 0 L 1.65625 -3.6875 L 5.40625 -3.6875 L 5.40625 0 Z M 1.65625 0 "/></g></g><g style="fill:#ffffff;fill-opacity:1;"><g transform="translate(799.566438, 521.746938)"><path style="stroke:none" d="M 1.65625 0 L 1.65625 -3.6875 L 5.40625 -3.6875 L 5.40625 0 Z M 1.65625 0 "/></g></g></g></svg>