<svg xmlns="http://www.w3.org/2000/svg" xmlns:xlink="http://www.w3.org/1999/xlink" width="1920" zoomAndPan="magnify" viewBox="0 0 1440 809.999993" height="1080" preserveAspectRatio="xMidYMid meet" version="1.2"><defs/><g id="1fcff9814c"><rect x="0" width="1440" y="0" height="809.999993" style="fill:#ffffff;fill-opacity:1;stroke:none;"/><rect x="0" width="1440" y="0" height="809.999993" style="fill:#087440;fill-opacity:1;stroke:none;"/><g style="fill:#000000;fill-opacity:1;"><g transform="translate(455.144503, 454.874997)"><path style="stroke:none" d="M 1.015625 0 L 15.640625 -119 L 50.828125 -119 L 65.453125 0 L 44.203125 0 L 40.796875 -34 L 25.671875 -34 L 22.265625 0 Z M 27.375 -49.640625 L 39.09375 -49.640625 L 33.3125 -107.953125 Z M 27.375 -49.640625 "/></g></g><g style="fill:#000000;fill-opacity:1;"><g transform="translate(521.61143, 454.874997)"><path style="stroke:none" d="M 6.625 0 L 6.625 -119 L 37.0625 -119 C 43.976562 -119 49.757812 -117.609375 54.40625 -114.828125 C 59.050781 -112.054688 62.5625 -107.441406 64.9375 -100.984375 C 67.320312 -94.523438 68.515625 -85.738281 68.515625 -74.625 C 68.515625 -59.21875 66.160156 -47.660156 61.453125 -39.953125 C 56.753906 -32.242188 48.625 -28.390625 37.0625 -28.390625 L 27.546875 -28.390625 L 27.546875 0 Z M 27.546875 -44.03125 L 35.015625 -44.03125 C 39.546875 -44.03125 42.773438 -46.351562 44.703125 -51 C 46.628906 -55.644531 47.59375 -63.578125 47.59375 -74.796875 C 47.59375 -85.222656 46.488281 -92.585938 44.28125 -96.890625 C 42.070312 -101.203125 38.984375 -103.359375 35.015625 -103.359375 L 27.546875 -103.359375 Z M 27.546875 -44.03125 "/></g></g><g style="fill:#000000;fill-opacity:1;"><g transform="translate(593.178119, 454.874997)"><path style="stroke:none" d="M 6.625 0 L 6.625 -119 L 37.0625 -119 C 43.976562 -119 49.757812 -117.609375 54.40625 -114.828125 C 59.050781 -112.054688 62.5625 -107.441406 64.9375 -100.984375 C 67.320312 -94.523438 68.515625 -85.738281 68.515625 -74.625 C 68.515625 -59.21875 66.160156 -47.660156 61.453125 -39.953125 C 56.753906 -32.242188 48.625 -28.390625 37.0625 -28.390625 L 27.546875 -28.390625 L 27.546875 0 Z M 27.546875 -44.03125 L 35.015625 -44.03125 C 39.546875 -44.03125 42.773438 -46.351562 44.703125 -51 C 46.628906 -55.644531 47.59375 -63.578125 47.59375 -74.796875 C 47.59375 -85.222656 46.488281 -92.585938 44.28125 -96.890625 C 42.070312 -101.203125 38.984375 -103.359375 35.015625 -103.359375 L 27.546875 -103.359375 Z M 27.546875 -44.03125 "/></g></g><g style="fill:#000000;fill-opacity:1;"><g transform="translate(664.744819, 454.874997)"><path style="stroke:none" d=""/></g></g><g style="fill:#000000;fill-opacity:1;"><g transform="translate(697.89327, 454.874997)"><path style="stroke:none" d="M 6.625 0 L 6.625 -119 L 26.015625 -119 L 47.59375 -51.84375 L 47.59375 -119 L 68.515625 -119 L 68.515625 0 L 49.296875 0 L 27.703125 -68 L 27.703125 0 Z M 6.625 0 "/></g></g><g style="fill:#000000;fill-opacity:1;"><g transform="translate(773.029794, 454.874997)"><path style="stroke:none" d="M 28.046875 -72.59375 C 23.628906 -72.59375 19.609375 -73.664062 15.984375 -75.8125 C 12.359375 -77.96875 9.46875 -80.859375 7.3125 -84.484375 C 5.15625 -88.117188 4.078125 -92.144531 4.078125 -96.5625 C 4.078125 -100.976562 5.15625 -105 7.3125 -108.625 C 9.46875 -112.25 12.359375 -115.140625 15.984375 -117.296875 C 19.609375 -119.453125 23.628906 -120.53125 28.046875 -120.53125 C 32.472656 -120.53125 36.5 -119.453125 40.125 -117.296875 C 43.75 -115.140625 46.632812 -112.25 48.78125 -108.625 C 50.9375 -105 52.015625 -100.976562 52.015625 -96.5625 C 52.015625 -92.144531 50.9375 -88.117188 48.78125 -84.484375 C 46.632812 -80.859375 43.75 -77.96875 40.125 -75.8125 C 36.5 -73.664062 32.472656 -72.59375 28.046875 -72.59375 Z M 18.015625 -96.5625 C 18.015625 -93.84375 18.976562 -91.488281 20.90625 -89.5 C 22.832031 -87.519531 25.210938 -86.53125 28.046875 -86.53125 C 30.765625 -86.53125 33.113281 -87.519531 35.09375 -89.5 C 37.082031 -91.488281 38.078125 -93.84375 38.078125 -96.5625 C 38.078125 -99.394531 37.082031 -101.773438 35.09375 -103.703125 C 33.113281 -105.628906 30.765625 -106.59375 28.046875 -106.59375 C 25.210938 -106.59375 22.832031 -105.628906 20.90625 -103.703125 C 18.976562 -101.773438 18.015625 -99.394531 18.015625 -96.5625 Z M 18.015625 -96.5625 "/></g></g><g style="fill:#000000;fill-opacity:1;"><g transform="translate(829.127196, 454.874997)"><path style="stroke:none" d=""/></g></g><g style="fill:#000000;fill-opacity:1;"><g transform="translate(862.275647, 454.874997)"><path style="stroke:none" d="M 35.703125 1.703125 C 25.503906 1.703125 17.679688 -2.148438 12.234375 -9.859375 C 6.796875 -17.566406 4.078125 -30.597656 4.078125 -48.953125 L 4.078125 -70.203125 C 4.078125 -88.453125 6.796875 -101.429688 12.234375 -109.140625 C 17.679688 -116.847656 25.503906 -120.703125 35.703125 -120.703125 C 45.785156 -120.703125 53.546875 -116.847656 58.984375 -109.140625 C 64.429688 -101.429688 67.15625 -88.453125 67.15625 -70.203125 L 67.15625 -48.953125 C 67.15625 -30.710938 64.429688 -17.707031 58.984375 -9.9375 C 53.546875 -2.175781 45.785156 1.703125 35.703125 1.703125 Z M 24.984375 -46.234375 C 24.984375 -44.765625 24.984375 -43.347656 24.984375 -41.984375 C 24.984375 -40.628906 25.039062 -39.328125 25.15625 -38.078125 L 40.125 -103.875 C 38.644531 -104.78125 37.113281 -105.234375 35.53125 -105.234375 C 31.675781 -105.117188 28.953125 -102.648438 27.359375 -97.828125 C 25.773438 -93.015625 24.984375 -84.71875 24.984375 -72.9375 Z M 30.59375 -15.8125 C 32.070312 -14.5625 33.71875 -13.9375 35.53125 -13.9375 C 39.5 -13.9375 42.273438 -16.375 43.859375 -21.25 C 45.441406 -26.125 46.234375 -34.453125 46.234375 -46.234375 L 46.234375 -72.9375 C 46.234375 -74.851562 46.234375 -76.632812 46.234375 -78.28125 C 46.234375 -79.925781 46.175781 -81.484375 46.0625 -82.953125 Z M 30.59375 -15.8125 "/></g></g><g style="fill:#000000;fill-opacity:1;"><g transform="translate(933.502389, 454.874997)"><path style="stroke:none" d="M 17.84375 0 L 17.84375 -98.4375 L 5.4375 -89.59375 L -1.703125 -103.015625 L 21.59375 -119 L 38.9375 -119 L 38.9375 0 Z M 17.84375 0 "/></g></g><g style="fill:#ffffff;fill-opacity:1;"><g transform="translate(537.457011, 508.812522)"><path style="stroke:none" d="M 2.546875 0 L 2.546875 -36.40625 L 6.453125 -36.40625 L 15.28125 -11.078125 L 15.28125 -36.40625 L 19.5 -36.40625 L 19.5 0 L 15.59375 0 L 6.8125 -25.53125 L 6.8125 0 Z M 2.546875 0 "/></g></g><g style="fill:#ffffff;fill-opacity:1;"><g transform="translate(559.503332, 508.812522)"><path style="stroke:none" d="M 10.09375 0.515625 C 4.375 0.515625 1.515625 -3.660156 1.515625 -12.015625 L 1.515625 -13.984375 C 1.515625 -17.867188 2.207031 -20.925781 3.59375 -23.15625 C 4.976562 -25.394531 7.144531 -26.515625 10.09375 -26.515625 C 13.070312 -26.515625 15.257812 -25.394531 16.65625 -23.15625 C 18.0625 -20.925781 18.75 -17.867188 18.71875 -13.984375 L 18.71875 -12.015625 C 18.75 -3.660156 15.875 0.515625 10.09375 0.515625 Z M 5.609375 -10.875 C 5.609375 -8.09375 5.957031 -6.007812 6.65625 -4.625 C 7.351562 -3.238281 8.5 -2.546875 10.09375 -2.546875 C 11.820312 -2.546875 13.023438 -3.238281 13.703125 -4.625 C 14.378906 -6.007812 14.695312 -8.09375 14.65625 -10.875 L 14.65625 -15.125 C 14.695312 -17.726562 14.359375 -19.765625 13.640625 -21.234375 C 12.929688 -22.710938 11.75 -23.453125 10.09375 -23.453125 C 8.5 -23.453125 7.351562 -22.710938 6.65625 -21.234375 C 5.957031 -19.765625 5.609375 -17.726562 5.609375 -15.125 Z M 5.609375 -10.875 "/></g></g><g style="fill:#ffffff;fill-opacity:1;"><g transform="translate(579.209817, 508.812522)"><path style="stroke:none" d="M 5.71875 0 L 0.734375 -26 L 4.890625 -26 L 9.46875 -1.25 L 14.09375 -26 L 18.203125 -26 L 13.203125 0 Z M 5.71875 0 "/></g></g><g style="fill:#ffffff;fill-opacity:1;"><g transform="translate(598.136375, 508.812522)"><path style="stroke:none" d="M 2.546875 0 L 2.546875 -26 L 6.609375 -26 L 6.609375 0 Z M 2.546875 -30 L 2.546875 -36.40625 L 6.609375 -36.40625 L 6.609375 -30 Z M 2.546875 -30 "/></g></g><g style="fill:#ffffff;fill-opacity:1;"><g transform="translate(607.287677, 508.812522)"><path style="stroke:none" d="M 19.140625 0.46875 C 16.503906 0.46875 14.960938 -0.726562 14.515625 -3.125 C 13.328125 -0.695312 11.414062 0.515625 8.78125 0.515625 C 6.914062 0.515625 5.460938 -0.0703125 4.421875 -1.25 C 3.378906 -2.425781 2.640625 -3.96875 2.203125 -5.875 C 1.773438 -7.78125 1.5625 -9.84375 1.5625 -12.0625 L 1.5625 -14.09375 C 1.5625 -18.632812 2.21875 -21.835938 3.53125 -23.703125 C 4.851562 -25.578125 6.601562 -26.515625 8.78125 -26.515625 C 10.132812 -26.515625 11.269531 -26.21875 12.1875 -25.625 C 13.113281 -25.039062 13.851562 -24.226562 14.40625 -23.1875 L 14.40625 -36.40625 L 18.453125 -36.40625 L 18.453125 -4.265625 C 18.453125 -3.191406 18.992188 -2.65625 20.078125 -2.65625 L 21.375 -2.65625 L 21.375 0.46875 Z M 5.609375 -10.96875 C 5.609375 -9.71875 5.722656 -8.441406 5.953125 -7.140625 C 6.179688 -5.847656 6.625 -4.765625 7.28125 -3.890625 C 7.9375 -3.023438 8.890625 -2.59375 10.140625 -2.59375 C 11.347656 -2.59375 12.328125 -3.066406 13.078125 -4.015625 C 13.828125 -4.972656 14.269531 -6.320312 14.40625 -8.0625 L 14.40625 -17.984375 C 14.269531 -19.648438 13.851562 -20.976562 13.15625 -21.96875 C 12.457031 -22.957031 11.453125 -23.453125 10.140625 -23.453125 C 8.890625 -23.453125 7.9375 -23.019531 7.28125 -22.15625 C 6.625 -21.289062 6.179688 -20.222656 5.953125 -18.953125 C 5.722656 -17.691406 5.609375 -16.414062 5.609375 -15.125 Z M 5.609375 -10.96875 "/></g></g><g style="fill:#ffffff;fill-opacity:1;"><g transform="translate(629.489992, 508.812522)"><path style="stroke:none" d="M 18.765625 0.46875 C 16.273438 0.46875 14.753906 -0.640625 14.203125 -2.859375 C 13.535156 -1.785156 12.644531 -0.953125 11.53125 -0.359375 C 10.425781 0.222656 9.179688 0.515625 7.796875 0.515625 C 5.785156 0.515625 4.242188 -0.0234375 3.171875 -1.109375 C 2.097656 -2.203125 1.5625 -3.6875 1.5625 -5.5625 C 1.5625 -6.988281 1.835938 -8.175781 2.390625 -9.125 C 2.941406 -10.082031 3.664062 -10.890625 4.5625 -11.546875 C 5.46875 -12.203125 6.429688 -12.78125 7.453125 -13.28125 C 8.484375 -13.789062 9.472656 -14.273438 10.421875 -14.734375 C 11.378906 -15.203125 12.1875 -15.738281 12.84375 -16.34375 C 13.5 -16.957031 13.898438 -17.695312 14.046875 -18.5625 L 14.046875 -19.1875 C 14.046875 -22.03125 12.691406 -23.453125 9.984375 -23.453125 C 8.703125 -23.453125 7.703125 -23.066406 6.984375 -22.296875 C 6.273438 -21.535156 5.921875 -20.5 5.921875 -19.1875 L 5.921875 -17.625 L 1.96875 -17.625 L 1.96875 -19.1875 C 1.96875 -21.375 2.632812 -23.140625 3.96875 -24.484375 C 5.3125 -25.835938 7.332031 -26.515625 10.03125 -26.515625 C 12.664062 -26.515625 14.675781 -25.847656 16.0625 -24.515625 C 17.445312 -23.179688 18.140625 -21.390625 18.140625 -19.140625 L 18.140625 -4.265625 C 18.140625 -3.191406 18.660156 -2.65625 19.703125 -2.65625 L 21.015625 -2.65625 L 21.015625 0.46875 Z M 5.609375 -6.140625 C 5.609375 -4.992188 5.945312 -4.113281 6.625 -3.5 C 7.300781 -2.894531 8.195312 -2.59375 9.3125 -2.59375 C 10.488281 -2.59375 11.523438 -2.984375 12.421875 -3.765625 C 13.328125 -4.546875 13.867188 -5.578125 14.046875 -6.859375 L 14.046875 -14.09375 C 13.242188 -13.4375 12.363281 -12.851562 11.40625 -12.34375 C 10.457031 -11.84375 9.539062 -11.332031 8.65625 -10.8125 C 7.769531 -10.289062 7.039062 -9.664062 6.46875 -8.9375 C 5.894531 -8.21875 5.609375 -7.285156 5.609375 -6.140625 Z M 5.609375 -6.140625 "/></g></g><g style="fill:#ffffff;fill-opacity:1;"><g transform="translate(650.652383, 508.812522)"><path style="stroke:none" d="M 19.140625 0.46875 C 16.503906 0.46875 14.960938 -0.726562 14.515625 -3.125 C 13.328125 -0.695312 11.414062 0.515625 8.78125 0.515625 C 6.914062 0.515625 5.460938 -0.0703125 4.421875 -1.25 C 3.378906 -2.425781 2.640625 -3.96875 2.203125 -5.875 C 1.773438 -7.78125 1.5625 -9.84375 1.5625 -12.0625 L 1.5625 -14.09375 C 1.5625 -18.632812 2.21875 -21.835938 3.53125 -23.703125 C 4.851562 -25.578125 6.601562 -26.515625 8.78125 -26.515625 C 10.132812 -26.515625 11.269531 -26.21875 12.1875 -25.625 C 13.113281 -25.039062 13.851562 -24.226562 14.40625 -23.1875 L 14.40625 -36.40625 L 18.453125 -36.40625 L 18.453125 -4.265625 C 18.453125 -3.191406 18.992188 -2.65625 20.078125 -2.65625 L 21.375 -2.65625 L 21.375 0.46875 Z M 5.609375 -10.96875 C 5.609375 -9.71875 5.722656 -8.441406 5.953125 -7.140625 C 6.179688 -5.847656 6.625 -4.765625 7.28125 -3.890625 C 7.9375 -3.023438 8.890625 -2.59375 10.140625 -2.59375 C 11.347656 -2.59375 12.328125 -3.066406 13.078125 -4.015625 C 13.828125 -4.972656 14.269531 -6.320312 14.40625 -8.0625 L 14.40625 -17.984375 C 14.269531 -19.648438 13.851562 -20.976562 13.15625 -21.96875 C 12.457031 -22.957031 11.453125 -23.453125 10.140625 -23.453125 C 8.890625 -23.453125 7.9375 -23.019531 7.28125 -22.15625 C 6.625 -21.289062 6.179688 -20.222656 5.953125 -18.953125 C 5.722656 -17.691406 5.609375 -16.414062 5.609375 -15.125 Z M 5.609375 -10.96875 "/></g></g><g style="fill:#ffffff;fill-opacity:1;"><g transform="translate(672.854697, 508.812522)"><path style="stroke:none" d="M 10.609375 0.515625 C 7.660156 0.515625 5.414062 -0.503906 3.875 -2.546875 C 2.332031 -4.585938 1.5625 -7.757812 1.5625 -12.0625 L 1.5625 -14.09375 C 1.5625 -18.425781 2.359375 -21.578125 3.953125 -23.546875 C 5.546875 -25.523438 7.660156 -26.515625 10.296875 -26.515625 C 13.140625 -26.515625 15.207031 -25.75 16.5 -24.21875 C 17.800781 -22.695312 18.453125 -20.773438 18.453125 -18.453125 L 18.453125 -15.75 C 18.453125 -14.78125 18.125 -13.96875 17.46875 -13.3125 C 16.8125 -12.65625 15.976562 -12.328125 14.96875 -12.328125 L 5.609375 -12.328125 L 5.609375 -10.96875 C 5.609375 -7.988281 6.015625 -5.847656 6.828125 -4.546875 C 7.648438 -3.242188 8.804688 -2.59375 10.296875 -2.59375 C 11.472656 -2.59375 12.429688 -2.914062 13.171875 -3.5625 C 13.921875 -4.207031 14.316406 -5.117188 14.359375 -6.296875 L 14.359375 -7.328125 L 18.453125 -7.234375 L 18.453125 -6.078125 C 18.390625 -4.109375 17.664062 -2.515625 16.28125 -1.296875 C 14.894531 -0.0859375 13.003906 0.515625 10.609375 0.515625 Z M 5.609375 -15.4375 L 13.203125 -15.4375 C 13.515625 -15.4375 13.785156 -15.550781 14.015625 -15.78125 C 14.242188 -16.007812 14.359375 -16.28125 14.359375 -16.59375 L 14.359375 -18.40625 C 14.359375 -19.9375 14.035156 -21.160156 13.390625 -22.078125 C 12.742188 -22.992188 11.710938 -23.453125 10.296875 -23.453125 C 8.867188 -23.453125 7.738281 -22.828125 6.90625 -21.578125 C 6.082031 -20.328125 5.648438 -18.28125 5.609375 -15.4375 Z M 5.609375 -15.4375 "/></g></g><g style="fill:#ffffff;fill-opacity:1;"><g transform="translate(692.821181, 508.812522)"><path style="stroke:none" d="M 9.984375 0.515625 C 7.273438 0.515625 5.207031 -0.128906 3.78125 -1.421875 C 2.363281 -2.722656 1.625 -4.414062 1.5625 -6.5 L 1.5625 -7.484375 L 5.609375 -7.546875 L 5.609375 -6.546875 C 5.648438 -5.304688 6.066406 -4.335938 6.859375 -3.640625 C 7.660156 -2.941406 8.703125 -2.59375 9.984375 -2.59375 C 12.898438 -2.59375 14.359375 -4.085938 14.359375 -7.078125 C 14.359375 -8.109375 14.070312 -9.003906 13.5 -9.765625 C 12.925781 -10.535156 12.015625 -11.09375 10.765625 -11.4375 L 7.796875 -12.265625 C 3.847656 -13.378906 1.875 -15.753906 1.875 -19.390625 C 1.875 -21.546875 2.554688 -23.269531 3.921875 -24.5625 C 5.296875 -25.863281 7.316406 -26.515625 9.984375 -26.515625 C 12.648438 -26.515625 14.640625 -25.878906 15.953125 -24.609375 C 17.273438 -23.347656 17.953125 -21.816406 17.984375 -20.015625 L 17.984375 -18.984375 L 14.046875 -18.921875 L 14.046875 -19.921875 C 14.003906 -20.890625 13.628906 -21.71875 12.921875 -22.40625 C 12.210938 -23.101562 11.234375 -23.453125 9.984375 -23.453125 C 8.765625 -23.453125 7.78125 -23.085938 7.03125 -22.359375 C 6.289062 -21.628906 5.921875 -20.640625 5.921875 -19.390625 C 5.921875 -18.554688 6.164062 -17.785156 6.65625 -17.078125 C 7.144531 -16.367188 7.925781 -15.875 9 -15.59375 L 12.015625 -14.8125 C 14.296875 -14.257812 15.9375 -13.34375 16.9375 -12.0625 C 17.945312 -10.78125 18.453125 -9.117188 18.453125 -7.078125 C 18.453125 -4.753906 17.757812 -2.90625 16.375 -1.53125 C 14.988281 -0.164062 12.859375 0.515625 9.984375 0.515625 Z M 9.984375 0.515625 "/></g></g><g style="fill:#ffffff;fill-opacity:1;"><g transform="translate(712.787664, 508.812522)"><path style="stroke:none" d=""/></g></g><g style="fill:#ffffff;fill-opacity:1;"><g transform="translate(723.446851, 508.812522)"><path style="stroke:none" d="M 10.609375 0.515625 C 7.660156 0.515625 5.414062 -0.503906 3.875 -2.546875 C 2.332031 -4.585938 1.5625 -7.757812 1.5625 -12.0625 L 1.5625 -14.09375 C 1.5625 -18.425781 2.359375 -21.578125 3.953125 -23.546875 C 5.546875 -25.523438 7.660156 -26.515625 10.296875 -26.515625 C 13.140625 -26.515625 15.207031 -25.75 16.5 -24.21875 C 17.800781 -22.695312 18.453125 -20.773438 18.453125 -18.453125 L 18.453125 -15.75 C 18.453125 -14.78125 18.125 -13.96875 17.46875 -13.3125 C 16.8125 -12.65625 15.976562 -12.328125 14.96875 -12.328125 L 5.609375 -12.328125 L 5.609375 -10.96875 C 5.609375 -7.988281 6.015625 -5.847656 6.828125 -4.546875 C 7.648438 -3.242188 8.804688 -2.59375 10.296875 -2.59375 C 11.472656 -2.59375 12.429688 -2.914062 13.171875 -3.5625 C 13.921875 -4.207031 14.316406 -5.117188 14.359375 -6.296875 L 14.359375 -7.328125 L 18.453125 -7.234375 L 18.453125 -6.078125 C 18.390625 -4.109375 17.664062 -2.515625 16.28125 -1.296875 C 14.894531 -0.0859375 13.003906 0.515625 10.609375 0.515625 Z M 5.609375 -15.4375 L 13.203125 -15.4375 C 13.515625 -15.4375 13.785156 -15.550781 14.015625 -15.78125 C 14.242188 -16.007812 14.359375 -16.28125 14.359375 -16.59375 L 14.359375 -18.40625 C 14.359375 -19.9375 14.035156 -21.160156 13.390625 -22.078125 C 12.742188 -22.992188 11.710938 -23.453125 10.296875 -23.453125 C 8.867188 -23.453125 7.738281 -22.828125 6.90625 -21.578125 C 6.082031 -20.328125 5.648438 -18.28125 5.609375 -15.4375 Z M 5.609375 -15.4375 "/></g></g><g style="fill:#ffffff;fill-opacity:1;"><g transform="translate(743.413345, 508.812522)"><path style="stroke:none" d="M 27.5625 -19.546875 C 27.5625 -20.765625 27.210938 -21.71875 26.515625 -22.40625 C 25.828125 -23.101562 24.894531 -23.453125 23.71875 -23.453125 C 22.425781 -23.453125 21.378906 -22.984375 20.578125 -22.046875 C 19.785156 -21.109375 19.304688 -19.910156 19.140625 -18.453125 L 19.140625 0 L 15.03125 0 L 15.03125 -19.546875 C 15.03125 -20.765625 14.679688 -21.71875 13.984375 -22.40625 C 13.296875 -23.101562 12.363281 -23.453125 11.1875 -23.453125 C 9.894531 -23.453125 8.847656 -22.984375 8.046875 -22.046875 C 7.253906 -21.109375 6.773438 -19.910156 6.609375 -18.453125 L 6.609375 0 L 2.546875 0 L 2.546875 -26 L 6.390625 -26 L 6.390625 -22.625 C 6.984375 -23.832031 7.800781 -24.78125 8.84375 -25.46875 C 9.882812 -26.164062 11.128906 -26.515625 12.578125 -26.515625 C 14.109375 -26.515625 15.410156 -26.160156 16.484375 -25.453125 C 17.554688 -24.742188 18.316406 -23.675781 18.765625 -22.25 C 19.328125 -23.570312 20.144531 -24.613281 21.21875 -25.375 C 22.289062 -26.132812 23.585938 -26.515625 25.109375 -26.515625 C 27.085938 -26.515625 28.664062 -25.914062 29.84375 -24.71875 C 31.019531 -23.53125 31.609375 -21.773438 31.609375 -19.453125 L 31.609375 0 L 27.5625 0 Z M 27.5625 -19.546875 "/></g></g><g style="fill:#ffffff;fill-opacity:1;"><g transform="translate(777.574736, 508.812522)"><path style="stroke:none" d=""/></g></g><g style="fill:#ffffff;fill-opacity:1;"><g transform="translate(788.233923, 508.812522)"><path style="stroke:none" d="M 2.546875 0 L 2.546875 -36.40625 L 10.875 -36.40625 C 13.707031 -36.40625 15.765625 -35.640625 17.046875 -34.109375 C 18.335938 -32.585938 18.984375 -30.40625 18.984375 -27.5625 C 18.984375 -25.550781 18.671875 -23.84375 18.046875 -22.4375 C 17.421875 -21.03125 16.34375 -19.984375 14.8125 -19.296875 C 16.476562 -18.566406 17.675781 -17.394531 18.40625 -15.78125 C 19.132812 -14.164062 19.5 -12.269531 19.5 -10.09375 C 19.5 -7 18.914062 -4.539062 17.75 -2.71875 C 16.59375 -0.90625 14.628906 0 11.859375 0 Z M 6.8125 -3.28125 L 11.234375 -3.28125 C 12.753906 -3.28125 13.800781 -3.953125 14.375 -5.296875 C 14.945312 -6.648438 15.234375 -8.367188 15.234375 -10.453125 C 15.234375 -12.703125 14.859375 -14.457031 14.109375 -15.71875 C 13.367188 -16.988281 12.1875 -17.625 10.5625 -17.625 L 6.8125 -17.625 Z M 6.8125 -20.953125 L 10.25 -20.953125 C 11.875 -20.953125 13.023438 -21.460938 13.703125 -22.484375 C 14.378906 -23.515625 14.71875 -25.066406 14.71875 -27.140625 C 14.71875 -28.941406 14.378906 -30.390625 13.703125 -31.484375 C 13.023438 -32.578125 11.925781 -33.125 10.40625 -33.125 L 6.8125 -33.125 Z M 6.8125 -20.953125 "/></g></g><g style="fill:#ffffff;fill-opacity:1;"><g transform="translate(808.928342, 508.812522)"><path style="stroke:none" d="M 2.546875 0 L 2.546875 -26 L 6.453125 -26 L 6.390625 -22.25 C 6.984375 -23.539062 7.789062 -24.570312 8.8125 -25.34375 C 9.832031 -26.125 11.054688 -26.515625 12.484375 -26.515625 L 12.734375 -26.515625 L 12.734375 -23.453125 L 11.703125 -23.453125 C 10.316406 -23.453125 9.160156 -22.929688 8.234375 -21.890625 C 7.316406 -20.847656 6.773438 -19.460938 6.609375 -17.734375 L 6.609375 0 Z M 2.546875 0 "/></g></g><g style="fill:#ffffff;fill-opacity:1;"><g transform="translate(821.719357, 508.812522)"><path style="stroke:none" d="M 10.609375 0.515625 C 7.660156 0.515625 5.414062 -0.503906 3.875 -2.546875 C 2.332031 -4.585938 1.5625 -7.757812 1.5625 -12.0625 L 1.5625 -14.09375 C 1.5625 -18.425781 2.359375 -21.578125 3.953125 -23.546875 C 5.546875 -25.523438 7.660156 -26.515625 10.296875 -26.515625 C 13.140625 -26.515625 15.207031 -25.75 16.5 -24.21875 C 17.800781 -22.695312 18.453125 -20.773438 18.453125 -18.453125 L 18.453125 -15.75 C 18.453125 -14.78125 18.125 -13.96875 17.46875 -13.3125 C 16.8125 -12.65625 15.976562 -12.328125 14.96875 -12.328125 L 5.609375 -12.328125 L 5.609375 -10.96875 C 5.609375 -7.988281 6.015625 -5.847656 6.828125 -4.546875 C 7.648438 -3.242188 8.804688 -2.59375 10.296875 -2.59375 C 11.472656 -2.59375 12.429688 -2.914062 13.171875 -3.5625 C 13.921875 -4.207031 14.316406 -5.117188 14.359375 -6.296875 L 14.359375 -7.328125 L 18.453125 -7.234375 L 18.453125 -6.078125 C 18.390625 -4.109375 17.664062 -2.515625 16.28125 -1.296875 C 14.894531 -0.0859375 13.003906 0.515625 10.609375 0.515625 Z M 5.609375 -15.4375 L 13.203125 -15.4375 C 13.515625 -15.4375 13.785156 -15.550781 14.015625 -15.78125 C 14.242188 -16.007812 14.359375 -16.28125 14.359375 -16.59375 L 14.359375 -18.40625 C 14.359375 -19.9375 14.035156 -21.160156 13.390625 -22.078125 C 12.742188 -22.992188 11.710938 -23.453125 10.296875 -23.453125 C 8.867188 -23.453125 7.738281 -22.828125 6.90625 -21.578125 C 6.082031 -20.328125 5.648438 -18.28125 5.609375 -15.4375 Z M 5.609375 -15.4375 "/></g></g><g style="fill:#ffffff;fill-opacity:1;"><g transform="translate(841.165866, 508.812522)"><path style="stroke:none" d="M 5.71875 0 L 0.734375 -26 L 4.890625 -26 L 9.46875 -1.25 L 14.09375 -26 L 18.203125 -26 L 13.203125 0 Z M 5.71875 0 "/></g></g><g style="fill:#ffffff;fill-opacity:1;"><g transform="translate(859.780435, 508.812522)"><path style="stroke:none" d="M 10.609375 0.515625 C 7.660156 0.515625 5.414062 -0.503906 3.875 -2.546875 C 2.332031 -4.585938 1.5625 -7.757812 1.5625 -12.0625 L 1.5625 -14.09375 C 1.5625 -18.425781 2.359375 -21.578125 3.953125 -23.546875 C 5.546875 -25.523438 7.660156 -26.515625 10.296875 -26.515625 C 13.140625 -26.515625 15.207031 -25.75 16.5 -24.21875 C 17.800781 -22.695312 18.453125 -20.773438 18.453125 -18.453125 L 18.453125 -15.75 C 18.453125 -14.78125 18.125 -13.96875 17.46875 -13.3125 C 16.8125 -12.65625 15.976562 -12.328125 14.96875 -12.328125 L 5.609375 -12.328125 L 5.609375 -10.96875 C 5.609375 -7.988281 6.015625 -5.847656 6.828125 -4.546875 C 7.648438 -3.242188 8.804688 -2.59375 10.296875 -2.59375 C 11.472656 -2.59375 12.429688 -2.914062 13.171875 -3.5625 C 13.921875 -4.207031 14.316406 -5.117188 14.359375 -6.296875 L 14.359375 -7.328125 L 18.453125 -7.234375 L 18.453125 -6.078125 C 18.390625 -4.109375 17.664062 -2.515625 16.28125 -1.296875 C 14.894531 -0.0859375 13.003906 0.515625 10.609375 0.515625 Z M 5.609375 -15.4375 L 13.203125 -15.4375 C 13.515625 -15.4375 13.785156 -15.550781 14.015625 -15.78125 C 14.242188 -16.007812 14.359375 -16.28125 14.359375 -16.59375 L 14.359375 -18.40625 C 14.359375 -19.9375 14.035156 -21.160156 13.390625 -22.078125 C 12.742188 -22.992188 11.710938 -23.453125 10.296875 -23.453125 C 8.867188 -23.453125 7.738281 -22.828125 6.90625 -21.578125 C 6.082031 -20.328125 5.648438 -18.28125 5.609375 -15.4375 Z M 5.609375 -15.4375 "/></g></g><g style="fill:#ffffff;fill-opacity:1;"><g transform="translate(879.746919, 508.812522)"><path style="stroke:none" d="M 1.515625 0 L 1.515625 -4.53125 L 6.03125 -4.53125 L 6.03125 0 Z M 1.515625 0 "/></g></g><g style="fill:#ffffff;fill-opacity:1;"><g transform="translate(887.338356, 508.812522)"><path style="stroke:none" d="M 1.515625 0 L 1.515625 -4.53125 L 6.03125 -4.53125 L 6.03125 0 Z M 1.515625 0 "/></g></g><g style="fill:#ffffff;fill-opacity:1;"><g transform="translate(894.929771, 508.812522)"><path style="stroke:none" d="M 1.515625 0 L 1.515625 -4.53125 L 6.03125 -4.53125 L 6.03125 0 Z M 1.515625 0 "/></g></g></g></svg>