<svg xmlns="http://www.w3.org/2000/svg" xmlns:xlink="http://www.w3.org/1999/xlink" width="1920" zoomAndPan="magnify" viewBox="0 0 1440 809.999993" height="1080" preserveAspectRatio="xMidYMid meet" version="1.0"><defs><g/><clipPath id="b441e2cfad"><rect x="0" width="1258" y="0" height="411"/></clipPath><clipPath id="de37bbee79"><path d="M 265.839844 322.214844 L 421.6875 322.214844 L 421.6875 484 L 265.839844 484 Z M 265.839844 322.214844 " clip-rule="nonzero"/></clipPath><clipPath id="11966dbda6"><path d="M 343.765625 322.214844 L 421.6875 402.882812 L 343.765625 483.550781 L 265.839844 402.882812 Z M 343.765625 322.214844 " clip-rule="nonzero"/></clipPath><clipPath id="9ca747e048"><path d="M 0.839844 0.214844 L 156.6875 0.214844 L 156.6875 161.601562 L 0.839844 161.601562 Z M 0.839844 0.214844 " clip-rule="nonzero"/></clipPath><clipPath id="a2a033526d"><path d="M 78.765625 0.214844 L 156.6875 80.882812 L 78.765625 161.550781 L 0.839844 80.882812 Z M 78.765625 0.214844 " clip-rule="nonzero"/></clipPath><clipPath id="bb8a69ff6c"><rect x="0" width="157" y="0" height="162"/></clipPath></defs><rect x="-144" width="1728" fill="#ffffff" y="-80.999999" height="971.999992" fill-opacity="1"/><rect x="-144" width="1728" fill="#ffffff" y="-80.999999" height="971.999992" fill-opacity="1"/><g transform="matrix(1, 0, 0, 1, 92, 236)"><g clip-path="url(#b441e2cfad)"><g fill="#000000" fill-opacity="1"><g transform="translate(1.421963, 307.886365)"><g><path d="M 141.515625 -287.125 L 141.515625 -246.9375 L 55.78125 -41.015625 L 141.515625 -41.015625 L 141.515625 0 L 9.4375 0 L 9.4375 -40.203125 L 95.15625 -246.109375 L 13.53125 -246.109375 L 13.53125 -287.125 Z M 141.515625 -287.125 "/></g></g></g><g fill="#000000" fill-opacity="1"><g transform="translate(153.606992, 307.886365)"><g/></g></g><g fill="#000000" fill-opacity="1"><g transform="translate(217.595818, 307.886365)"><g/></g></g><g fill="#000000" fill-opacity="1"><g transform="translate(281.584644, 307.886365)"><g/></g></g><g fill="#000000" fill-opacity="1"><g transform="translate(345.580359, 307.886365)"><g><path d="M 56.609375 -207.96875 L 56.609375 0 L 16 0 L 16 -287.125 L 72.609375 -287.125 L 118.953125 -115.265625 L 118.953125 -287.125 L 159.15625 -287.125 L 159.15625 0 L 112.796875 0 Z M 56.609375 -207.96875 "/></g></g></g><g fill="#000000" fill-opacity="1"><g transform="translate(521.139491, 307.886365)"><g><path d="M 61.53125 -166.125 L 123.46875 -166.125 L 123.46875 -125.109375 L 61.53125 -125.109375 L 61.53125 -41.015625 L 139.46875 -41.015625 L 139.46875 0 L 16.40625 0 L 16.40625 -287.125 L 139.46875 -287.125 L 139.46875 -246.109375 L 61.53125 -246.109375 Z M 61.53125 -166.125 "/></g></g></g><g fill="#000000" fill-opacity="1"><g transform="translate(672.497657, 307.886365)"><g><path d="M 61.53125 -159.5625 L 119.78125 -159.5625 L 119.78125 -118.546875 L 61.53125 -118.546875 L 61.53125 0 L 16.40625 0 L 16.40625 -287.125 L 135.765625 -287.125 L 135.765625 -246.109375 L 61.53125 -246.109375 Z M 61.53125 -159.5625 "/></g></g></g><g fill="#000000" fill-opacity="1"><g transform="translate(808.679005, 307.886365)"><g><path d="M 162.4375 0 L 116.90625 0 L 109.109375 -52.09375 L 53.734375 -52.09375 L 45.9375 0 L 4.515625 0 L 50.453125 -287.125 L 116.5 -287.125 Z M 59.484375 -91.0625 L 102.953125 -91.0625 L 81.21875 -236.265625 Z M 59.484375 -91.0625 "/></g></g></g><g fill="#000000" fill-opacity="1"><g transform="translate(976.034427, 307.886365)"><g><path d="M 16.40625 -287.125 L 61.53125 -287.125 L 61.53125 -41.015625 L 135.765625 -41.015625 L 135.765625 0 L 16.40625 0 Z M 16.40625 -287.125 "/></g></g></g><g fill="#000000" fill-opacity="1"><g transform="translate(1115.497267, 307.886365)"><g><path d="M 16.40625 -287.125 L 61.53125 -287.125 L 61.53125 -41.015625 L 135.765625 -41.015625 L 135.765625 0 L 16.40625 0 Z M 16.40625 -287.125 "/></g></g></g></g></g><path stroke-linecap="butt" transform="matrix(0.000000001309, 0.75, -0.75, 0.000000001309, 316.77084, 259.596422)" fill="none" stroke-linejoin="miter" d="M 0.00164543 27.001746 L 382.105831 27.001747 " stroke="#000000" stroke-width="54" stroke-opacity="1" stroke-miterlimit="4"/><path stroke-linecap="butt" transform="matrix(0.000000001309, 0.75, -0.75, 0.000000001309, 411.816586, 259.596422)" fill="none" stroke-linejoin="miter" d="M 0.00164543 27.00024 L 382.105831 27.000241 " stroke="#000000" stroke-width="54" stroke-opacity="1" stroke-miterlimit="4"/><path stroke-linecap="butt" transform="matrix(-0.75, 0, 0, -0.75, 411.874498, 299.658461)" fill="none" stroke-linejoin="miter" d="M -0.000669998 26.997741 L 179.671214 26.997741 " stroke="#000000" stroke-width="54" stroke-opacity="1" stroke-miterlimit="4"/><path stroke-linecap="butt" transform="matrix(-0.75, 0, 0, -0.75, 411.874498, 546.604673)" fill="none" stroke-linejoin="miter" d="M -0.000669998 26.99894 L 179.671214 26.99894 " stroke="#000000" stroke-width="54" stroke-opacity="1" stroke-miterlimit="4"/><g clip-path="url(#de37bbee79)"><g clip-path="url(#11966dbda6)"><g transform="matrix(1, 0, 0, 1, 265, 322)"><g clip-path="url(#bb8a69ff6c)"><g clip-path="url(#9ca747e048)"><g clip-path="url(#a2a033526d)"><path fill="#ffffff" d="M 0.839844 0.214844 L 156.6875 0.214844 L 156.6875 161.539062 L 0.839844 161.539062 Z M 0.839844 0.214844 " fill-opacity="1" fill-rule="nonzero"/></g></g></g></g></g></g><path stroke-linecap="butt" transform="matrix(-0.655703, -0.364079, 0.364079, -0.655703, 299.885617, 557.061904)" fill="none" stroke-linejoin="miter" d="M 1.402137 12.999896 C 16.260171 -1.666083 31.111234 -1.667164 45.96241 12.998679 " stroke="#ffffff" stroke-width="4" stroke-opacity="1" stroke-miterlimit="4"/><path stroke-linecap="butt" transform="matrix(-0.655703, -0.364079, 0.364079, -0.655703, 298.446027, 558.506584)" fill="none" stroke-linejoin="miter" d="M 1.406374 13.002536 C 16.257325 -1.665468 31.108389 -1.666549 45.959565 12.999294 " stroke="#ffffff" stroke-width="4" stroke-opacity="1" stroke-miterlimit="4"/><path stroke-linecap="butt" transform="matrix(-0.655703, -0.364079, 0.364079, -0.655703, 297.006438, 559.951336)" fill="none" stroke-linejoin="miter" d="M 1.408129 13.000707 C 16.25908 -1.667297 31.110144 -1.668378 45.96132 12.997465 " stroke="#ffffff" stroke-width="4" stroke-opacity="1" stroke-miterlimit="4"/><path stroke-linecap="butt" transform="matrix(-0.655703, -0.364079, 0.364079, -0.655703, 295.566877, 561.396088)" fill="none" stroke-linejoin="miter" d="M 1.405364 13.001387 C 16.256315 -1.666617 31.107379 -1.667698 45.961083 13.002699 " stroke="#ffffff" stroke-width="4" stroke-opacity="1" stroke-miterlimit="4"/><path stroke-linecap="butt" transform="matrix(0.471796, 0.583016, -0.583016, 0.471796, 399.339039, 250.342303)" fill="none" stroke-linejoin="miter" d="M 1.406464 13.0026 C 16.257906 -1.665491 31.107679 -1.668481 45.96388 13.000183 " stroke="#ffffff" stroke-width="4" stroke-opacity="1" stroke-miterlimit="4"/><path stroke-linecap="butt" transform="matrix(0.471796, 0.583016, -0.583016, 0.471796, 400.831714, 248.851589)" fill="none" stroke-linejoin="miter" d="M 1.404528 13.00187 C 16.25597 -1.666221 31.109792 -1.665935 45.961945 12.999453 " stroke="#ffffff" stroke-width="4" stroke-opacity="1" stroke-miterlimit="4"/><path stroke-linecap="butt" transform="matrix(0.471796, 0.583016, -0.583016, 0.471796, 402.324389, 247.360877)" fill="none" stroke-linejoin="miter" d="M 1.40259 13.001138 C 16.254032 -1.666953 31.107853 -1.666667 45.960006 12.99872 " stroke="#ffffff" stroke-width="4" stroke-opacity="1" stroke-miterlimit="4"/><path stroke-linecap="butt" transform="matrix(0.471796, 0.583016, -0.583016, 0.471796, 403.817074, 245.870134)" fill="none" stroke-linejoin="miter" d="M 1.408001 12.999669 C 16.256166 -1.664373 31.109988 -1.664087 45.962141 13.001301 " stroke="#ffffff" stroke-width="4" stroke-opacity="1" stroke-miterlimit="4"/></svg>