<svg xmlns="http://www.w3.org/2000/svg" xmlns:xlink="http://www.w3.org/1999/xlink" width="500" zoomAndPan="magnify" viewBox="0 0 375 374.999991" height="500" preserveAspectRatio="xMidYMid meet" version="1.0"><defs><clipPath id="be126ff72d"><path d="M 209 71 L 298.074219 71 L 298.074219 304.820312 L 209 304.820312 Z M 209 71 " clip-rule="nonzero"/></clipPath><clipPath id="18ef6226aa"><path d="M 76.824219 70.070312 L 166 70.070312 L 166 304 L 76.824219 304 Z M 76.824219 70.070312 " clip-rule="nonzero"/></clipPath></defs><g clip-path="url(#be126ff72d)"><path fill="#01cb65" d="M 253.683594 97.191406 L 253.683594 253.613281 L 209.738281 279.179688 L 253.96875 304.90625 L 298.167969 279.199219 L 298.167969 71.316406 Z M 253.683594 97.191406 " fill-opacity="1" fill-rule="nonzero"/></g><path fill="#01cb65" d="M 165.253906 226.160156 L 165.253906 253.304688 L 209.738281 279.179688 L 209.738281 200.292969 Z M 165.253906 226.160156 " fill-opacity="1" fill-rule="nonzero"/><g clip-path="url(#18ef6226aa)"><path fill="#01cb65" d="M 121.023438 70.09375 L 76.824219 95.800781 L 76.824219 303.683594 L 121.308594 277.808594 L 121.308594 121.386719 L 165.253906 95.820312 Z M 121.023438 70.09375 " fill-opacity="1" fill-rule="nonzero"/></g><path fill="#01cb65" d="M 209.738281 148.839844 L 209.738281 121.695312 L 165.253906 95.820312 L 165.253906 174.707031 Z M 209.738281 148.839844 " fill-opacity="1" fill-rule="nonzero"/></svg>